<svg width="456" height="187" viewBox="0 0 456 187" fill="none" xmlns="http://www.w3.org/2000/svg">
<path d="M73.988 139.171C75.194 139.171 75.998 139.506 76.4 140.176C76.936 140.712 77.204 141.382 77.204 142.186C77.204 142.856 76.869 143.526 76.199 144.196C75.663 144.732 74.926 145 73.988 145H54.089C52.079 145 50.94 143.995 50.672 141.985V135.352C49.868 136.424 48.796 137.63 47.456 138.97C46.25 140.176 44.709 141.382 42.833 142.588C40.957 143.66 38.746 144.531 36.2 145.201C33.654 146.005 30.773 146.407 27.557 146.407C25.413 146.407 22.8 145.871 19.718 144.799C16.636 143.727 13.688 141.516 10.874 138.166C8.05999 134.682 5.64799 129.858 3.63799 123.694C1.62799 117.53 0.622986 109.289 0.622986 98.971C0.622986 88.787 1.62799 80.546 3.63799 74.248C5.64799 67.95 8.05999 63.059 10.874 59.575C13.688 56.091 16.636 53.746 19.718 52.54C22.8 51.334 25.413 50.731 27.557 50.731C30.907 50.731 33.855 51.133 36.401 51.937C38.947 52.741 41.158 53.746 43.034 54.952C44.91 56.158 46.451 57.431 47.657 58.771C48.997 60.111 50.069 61.317 50.873 62.389V20.782C50.873 19.978 50.672 19.241 50.27 18.571C49.868 17.901 49.399 17.298 48.863 16.762C48.327 16.226 47.657 15.757 46.853 15.355C45.781 14.819 44.977 14.216 44.441 13.546C44.039 12.876 43.905 12.206 44.039 11.536C44.173 10.866 45.111 10.129 46.853 9.32498C50.739 7.44898 54.424 5.84098 57.908 4.50097C61.526 3.16097 63.804 2.35698 64.742 2.08898C65.948 1.68698 66.886 1.35198 67.556 1.08399C68.36 0.815981 68.963 0.748975 69.365 0.882982C69.767 1.01698 70.035 1.48598 70.169 2.28998C70.303 2.95998 70.37 4.09898 70.37 5.70698V20.782C70.37 38.068 70.303 52.607 70.169 64.399C70.169 76.191 70.169 85.973 70.169 93.745C70.169 101.383 70.169 107.279 70.169 111.433C70.169 115.587 70.169 118.669 70.169 120.679C70.169 122.555 70.169 123.694 70.169 124.096C70.169 124.498 70.169 124.766 70.169 124.9C70.169 126.508 70.169 128.183 70.169 129.925C70.303 131.533 70.504 133.074 70.772 134.548C71.04 135.888 71.442 137.027 71.978 137.965C72.514 138.769 73.184 139.171 73.988 139.171ZM33.386 142.387C35.798 142.387 37.942 141.985 39.818 141.181C41.694 140.377 43.302 139.372 44.642 138.166C46.116 136.826 47.322 135.419 48.26 133.945C49.198 132.337 50.002 130.863 50.672 129.523L50.873 68.218C50.203 66.744 49.332 65.27 48.26 63.796C47.322 62.188 46.116 60.714 44.642 59.374C43.302 58.034 41.694 56.962 39.818 56.158C37.942 55.354 35.798 54.952 33.386 54.952C30.17 54.952 27.691 56.292 25.949 58.972C24.207 61.518 22.867 64.935 21.929 69.223C21.125 73.377 20.589 78.067 20.321 83.293C20.187 88.519 20.12 93.745 20.12 98.971C20.12 104.197 20.187 109.423 20.321 114.649C20.589 119.741 21.125 124.364 21.929 128.518C22.867 132.672 24.207 136.022 25.949 138.568C27.691 141.114 30.17 142.387 33.386 142.387Z" fill="black"/>
<path d="M151.821 73.444C151.821 78.67 150.883 83.025 149.007 86.509C147.131 89.993 144.719 92.807 141.771 94.951C138.823 96.961 135.473 98.502 131.721 99.574C128.103 100.512 124.485 101.182 120.867 101.584C117.249 101.986 113.832 102.187 110.616 102.187C107.4 102.053 104.787 101.986 102.777 101.986C102.777 105.872 102.978 110.093 103.38 114.649C103.916 119.071 104.854 123.225 106.194 127.111C107.668 130.997 109.611 134.213 112.023 136.759C114.435 139.305 117.584 140.578 121.47 140.578C126.696 140.578 130.984 139.841 134.334 138.367C137.818 136.759 140.565 134.816 142.575 132.538C144.585 130.126 145.992 127.58 146.796 124.9C147.734 122.086 148.203 119.406 148.203 116.86C148.203 115.922 148.739 115.453 149.811 115.453C150.749 115.453 151.218 115.922 151.218 116.86C151.218 121.55 150.414 125.771 148.806 129.523C147.198 133.141 145.054 136.223 142.374 138.769C139.694 141.315 136.545 143.258 132.927 144.598C129.309 145.938 125.423 146.608 121.269 146.608C114.301 146.742 108.405 145.469 103.581 142.789C98.7565 140.109 94.8035 136.491 91.7215 131.935C88.7735 127.379 86.5625 122.086 85.0885 116.056C83.6145 110.026 82.8105 103.594 82.6765 96.76C82.5425 90.194 83.4135 84.097 85.2895 78.469C87.1655 72.707 89.8455 67.749 93.3295 63.595C96.8135 59.441 100.901 56.225 105.591 53.947C110.415 51.535 115.574 50.329 121.068 50.329C131.118 50.329 138.756 52.54 143.982 56.962C149.208 61.25 151.821 66.744 151.821 73.444ZM102.777 98.569C104.385 98.569 106.797 98.368 110.013 97.966C113.229 97.564 116.512 96.492 119.862 94.75C123.212 93.008 126.093 90.529 128.505 87.313C131.051 83.963 132.324 79.34 132.324 73.444C132.324 67.548 131.386 62.59 129.51 58.57C127.768 54.55 124.954 52.54 121.068 52.54C117.852 52.54 115.105 53.545 112.827 55.555C110.683 57.565 108.941 60.111 107.601 63.193C106.261 66.275 105.256 69.692 104.586 73.444C103.916 77.062 103.447 80.613 103.179 84.097C102.911 87.447 102.777 90.462 102.777 93.142C102.777 95.822 102.777 97.631 102.777 98.569Z" fill="black"/>
<path d="M192.174 89.323C196.73 91.333 201.353 93.343 206.043 95.353C210.867 97.363 215.155 99.574 218.907 101.986C222.659 104.398 225.741 107.145 228.153 110.227C230.565 113.309 231.771 116.927 231.771 121.081C231.771 126.307 230.632 130.595 228.354 133.945C226.076 137.161 223.195 139.707 219.711 141.583C216.361 143.459 212.609 144.732 208.455 145.402C204.301 146.072 200.415 146.407 196.797 146.407C193.447 146.407 189.695 145.938 185.541 145C181.521 144.062 177.702 142.655 174.084 140.779C170.466 138.769 167.451 136.29 165.039 133.342C162.627 130.394 161.421 126.977 161.421 123.091C161.421 120.411 161.89 118.066 162.828 116.056C163.9 113.912 165.24 112.17 166.848 110.83C168.456 109.49 170.198 108.686 172.074 108.418C174.084 108.15 176.094 108.485 178.104 109.423C180.114 110.361 181.521 111.567 182.325 113.041C183.129 114.381 183.531 115.855 183.531 117.463C183.531 118.937 183.129 120.478 182.325 122.086C181.521 123.56 180.449 124.967 179.109 126.307C177.367 128.049 176.697 129.858 177.099 131.734C177.635 133.61 178.841 135.285 180.717 136.759C182.727 138.233 185.139 139.506 187.953 140.578C190.767 141.516 193.715 141.985 196.797 141.985C202.023 141.985 206.311 140.846 209.661 138.568C213.011 136.29 215.088 133.543 215.892 130.327C216.696 127.111 215.959 123.694 213.681 120.076C211.537 116.458 207.45 113.309 201.42 110.629C198.338 109.289 194.653 107.748 190.365 106.006C186.077 104.13 181.99 101.919 178.104 99.373C174.218 96.693 170.868 93.678 168.054 90.328C165.24 86.844 163.833 82.757 163.833 78.067C163.833 69.893 166.513 63.327 171.873 58.369C177.233 53.411 185.541 50.932 196.797 50.932C202.023 50.932 206.579 51.669 210.465 53.143C214.485 54.483 217.835 56.225 220.515 58.369C223.195 60.379 225.205 62.657 226.545 65.203C227.885 67.749 228.555 70.161 228.555 72.439C228.555 75.655 228.086 78.335 227.148 80.479C226.344 82.489 225.205 84.097 223.731 85.303C222.391 86.375 220.85 87.045 219.108 87.313C217.5 87.581 215.959 87.38 214.485 86.71C211.001 85.37 208.924 83.025 208.254 79.675C207.584 76.325 208.991 72.908 212.475 69.424C214.083 67.816 215.021 66.141 215.289 64.399C215.691 62.657 215.289 61.049 214.083 59.575C212.877 57.967 210.867 56.694 208.053 55.756C205.239 54.684 201.487 54.148 196.797 54.148C190.633 54.148 186.077 55.622 183.129 58.57C180.315 61.518 178.841 65.002 178.707 69.022C178.573 72.908 179.645 76.794 181.923 80.68C184.335 84.566 187.752 87.447 192.174 89.323Z" fill="black"/>
<path d="M274.233 139.171C275.305 139.171 276.109 139.506 276.645 140.176C277.181 140.712 277.449 141.382 277.449 142.186C277.449 142.856 277.114 143.526 276.444 144.196C275.908 144.732 275.171 145 274.233 145H246.897C245.825 145 245.021 144.732 244.485 144.196C243.949 143.526 243.681 142.856 243.681 142.186C243.681 141.382 243.949 140.712 244.485 140.176C245.021 139.506 245.825 139.171 246.897 139.171C248.371 139.171 249.443 137.898 250.113 135.352C250.917 132.806 251.319 130.126 251.319 127.312V70.228C251.319 69.424 251.051 68.754 250.515 68.218C250.113 67.548 249.644 66.945 249.108 66.409C248.438 65.873 247.701 65.337 246.897 64.801C245.691 64.265 244.82 63.662 244.284 62.992C243.882 62.322 243.748 61.652 243.882 60.982C244.15 60.312 245.088 59.575 246.696 58.771C250.716 56.895 254.468 55.287 257.952 53.947C261.57 52.607 263.848 51.803 264.786 51.535C265.992 51.133 266.863 50.865 267.399 50.731C268.069 50.463 268.538 50.396 268.806 50.53C269.208 50.664 269.409 51.066 269.409 51.736C269.543 52.406 269.61 53.545 269.61 55.153V128.116C269.744 130.796 270.146 133.342 270.816 135.754C271.62 138.032 272.759 139.171 274.233 139.171ZM259.359 45.706C256.411 45.706 253.865 44.701 251.721 42.691C249.577 40.547 248.505 37.934 248.505 34.852C248.505 31.77 249.577 29.224 251.721 27.214C253.865 25.07 256.411 23.998 259.359 23.998C262.441 23.998 264.987 25.07 266.997 27.214C269.141 29.224 270.213 31.77 270.213 34.852C270.213 37.934 269.141 40.547 266.997 42.691C264.987 44.701 262.441 45.706 259.359 45.706Z" fill="black"/>
<path d="M369.601 43.696C369.869 45.304 369.668 46.711 368.998 47.917C368.462 49.123 367.591 50.061 366.385 50.731C365.179 51.267 363.839 51.535 362.365 51.535C360.891 51.535 359.35 51.066 357.742 50.128C355.866 48.922 354.459 48.721 353.521 49.525C352.583 50.329 351.98 51.468 351.712 52.942C351.444 54.282 351.31 55.756 351.31 57.364C351.444 58.972 351.511 59.977 351.511 60.379C358.881 67.749 362.566 77.33 362.566 89.122C362.566 95.152 361.427 100.847 359.149 106.207C357.005 111.567 353.387 116.391 348.295 120.679C351.779 122.421 354.794 125.369 357.34 129.523C360.02 133.543 361.695 138.166 362.365 143.392C363.169 148.484 362.834 153.777 361.36 159.271C359.886 164.899 356.737 170.125 351.913 174.949C348.697 178.165 344.878 180.711 340.456 182.587C336.034 184.597 331.478 185.87 326.788 186.406C322.098 187.076 317.408 187.009 312.718 186.205C308.028 185.535 303.874 184.061 300.256 181.783C296.638 179.639 293.69 176.691 291.412 172.939C289.134 169.321 287.995 164.832 287.995 159.472C287.995 157.462 288.263 155.318 288.799 153.04C289.469 150.762 290.474 148.417 291.814 146.005C293.288 143.727 295.164 141.583 297.442 139.573C299.72 137.429 302.601 135.62 306.085 134.146C308.765 132.94 311.378 132.337 313.924 132.337C316.604 132.203 318.949 132.538 320.959 133.342C322.969 134.146 324.577 135.352 325.783 136.96C327.123 138.568 327.793 140.377 327.793 142.387C327.793 143.995 327.391 145.603 326.587 147.211C325.917 148.953 324.778 150.36 323.17 151.432C321.696 152.504 319.82 153.04 317.542 153.04C315.398 153.174 312.852 152.437 309.904 150.829C308.43 150.025 306.621 149.355 304.477 148.819C302.333 148.417 300.256 148.417 298.246 148.819C296.37 149.221 294.762 150.226 293.422 151.834C292.082 153.442 291.412 155.988 291.412 159.472C291.412 164.564 292.886 168.584 295.834 171.532C298.782 174.48 302.601 176.155 307.291 176.557C311.981 177.093 317.207 176.155 322.969 173.743C328.731 171.465 334.359 167.579 339.853 162.085C342.935 159.003 345.347 155.519 347.089 151.633C348.965 147.747 350.104 143.928 350.506 140.176C351.042 136.29 350.841 132.806 349.903 129.724C349.099 126.508 347.558 124.163 345.28 122.689C342.466 124.565 339.384 126.039 336.034 127.111C332.684 128.049 329.401 128.518 326.185 128.518C322.299 128.518 318.145 127.714 313.723 126.106C309.435 124.498 305.482 122.086 301.864 118.87C298.246 115.52 295.298 111.366 293.02 106.408C290.742 101.45 289.737 95.688 290.005 89.122C289.737 82.556 290.742 76.794 293.02 71.836C295.432 66.878 298.447 62.791 302.065 59.575C305.683 56.225 309.636 53.746 313.924 52.138C318.212 50.53 322.299 49.726 326.185 49.726C329.669 49.726 333.287 50.396 337.039 51.736C340.791 52.942 344.342 54.818 347.692 57.364C348.362 52.272 349.434 48.252 350.908 45.304C352.382 42.222 354.66 39.944 357.742 38.47C358.68 38.068 359.752 37.8 360.958 37.666C362.298 37.532 363.504 37.666 364.576 38.068C365.782 38.47 366.854 39.14 367.792 40.078C368.73 40.882 369.333 42.088 369.601 43.696ZM326.185 125.704C329.803 125.704 332.617 124.431 334.627 121.885C336.771 119.205 338.312 115.989 339.25 112.237C340.322 108.485 340.992 104.532 341.26 100.378C341.528 96.09 341.662 92.338 341.662 89.122C341.662 86.576 341.528 83.226 341.26 79.072C341.126 74.918 340.59 70.898 339.652 67.012C338.714 63.126 337.173 59.776 335.029 56.962C332.885 54.148 329.937 52.741 326.185 52.741C315.867 52.741 310.708 64.868 310.708 89.122C310.708 113.51 315.867 125.704 326.185 125.704Z" fill="black"/>
<path d="M451.915 139.171C452.987 139.171 453.791 139.506 454.327 140.176C454.863 140.712 455.131 141.382 455.131 142.186C455.131 142.856 454.796 143.526 454.126 144.196C453.59 144.732 452.853 145 451.915 145H426.187C425.115 145 424.311 144.732 423.775 144.196C423.239 143.526 422.971 142.856 422.971 142.186C422.971 141.382 423.239 140.712 423.775 140.176C424.311 139.506 425.115 139.171 426.187 139.171C426.991 139.171 427.661 138.769 428.197 137.965C428.733 137.161 429.135 136.156 429.403 134.95C429.671 133.61 429.872 132.136 430.006 130.528C430.14 128.92 430.207 127.379 430.207 125.905V70.63C430.207 69.022 430.14 67.481 430.006 66.007C429.872 64.533 429.537 63.26 429.001 62.188C428.465 60.982 427.527 60.044 426.187 59.374C424.981 58.57 423.306 58.168 421.162 58.168C418.616 58.168 416.338 58.57 414.328 59.374C412.452 60.178 410.777 61.183 409.303 62.389C407.829 63.595 406.556 64.868 405.484 66.208C404.546 67.548 403.742 68.754 403.072 69.826V125.905C403.072 127.379 403.072 128.92 403.072 130.528C403.206 132.136 403.407 133.61 403.675 134.95C404.077 136.156 404.546 137.161 405.082 137.965C405.618 138.769 406.288 139.171 407.092 139.171C408.164 139.171 408.968 139.506 409.504 140.176C410.04 140.712 410.308 141.382 410.308 142.186C410.308 142.856 409.973 143.526 409.303 144.196C408.767 144.732 408.03 145 407.092 145H379.756C378.684 145 377.88 144.732 377.344 144.196C376.808 143.526 376.54 142.856 376.54 142.186C376.54 141.382 376.808 140.712 377.344 140.176C377.88 139.506 378.684 139.171 379.756 139.171C380.56 139.171 381.163 138.769 381.565 137.965C382.101 137.161 382.503 136.156 382.771 134.95C383.173 133.61 383.374 132.136 383.374 130.528C383.508 128.92 383.575 127.379 383.575 125.905V71.032C383.575 70.228 383.374 69.491 382.972 68.821C382.57 68.151 382.101 67.548 381.565 67.012C381.029 66.476 380.426 66.007 379.756 65.605C378.55 65.069 377.679 64.466 377.143 63.796C376.741 63.126 376.607 62.456 376.741 61.786C377.009 61.116 377.947 60.379 379.555 59.575C381.565 58.637 383.508 57.766 385.384 56.962C387.394 56.024 389.203 55.287 390.811 54.751C392.553 54.081 394.027 53.545 395.233 53.143C396.439 52.741 397.243 52.473 397.645 52.339C399.923 51.535 401.397 51.133 402.067 51.133C402.737 51.133 403.072 52.674 403.072 55.756V64.6C403.876 63.394 405.015 61.987 406.489 60.379C408.097 58.637 409.973 56.962 412.117 55.354C414.395 53.746 417.008 52.406 419.956 51.334C423.038 50.262 426.455 49.726 430.207 49.726C434.227 49.726 437.376 50.396 439.654 51.736C442.066 52.942 443.875 54.55 445.081 56.56C446.421 58.57 447.225 60.848 447.493 63.394C447.895 65.806 448.096 68.218 448.096 70.63V125.905C448.096 127.379 448.096 128.92 448.096 130.528C448.23 132.136 448.431 133.61 448.699 134.95C448.967 136.156 449.369 137.161 449.905 137.965C450.441 138.769 451.111 139.171 451.915 139.171Z" fill="black"/>
</svg>
