<svg width="599" height="135" viewBox="0 0 599 135" fill="none" xmlns="http://www.w3.org/2000/svg">
<path d="M38.056 108.592C32.488 108.592 27.4 107.584 22.792 105.568C18.28 103.552 14.344 100.768 10.984 97.216C7.62397 93.568 5.03197 89.296 3.20797 84.4C1.47997 79.504 0.615967 74.224 0.615967 68.56V65.248C0.615967 59.584 1.43197 54.304 3.06397 49.408C4.79197 44.512 7.23997 40.24 10.408 36.592C13.672 32.848 17.56 29.968 22.072 27.952C26.584 25.84 31.624 24.784 37.192 24.784C43.528 24.784 49 26.176 53.608 28.96C58.216 31.648 61.816 35.68 64.408 41.056C67 46.336 68.44 52.864 68.728 60.64L62.68 55.024V0.880005H85.864V106H67.576V73.312H70.744C70.456 80.8 68.872 87.184 65.992 92.464C63.208 97.744 59.416 101.776 54.616 104.56C49.816 107.248 44.296 108.592 38.056 108.592ZM43.816 89.296C47.368 89.296 50.584 88.528 53.464 86.992C56.44 85.36 58.792 83.008 60.52 79.936C62.344 76.864 63.256 73.168 63.256 68.848V63.52C63.256 59.296 62.344 55.744 60.52 52.864C58.696 49.984 56.296 47.776 53.32 46.24C50.344 44.704 47.128 43.936 43.672 43.936C39.832 43.936 36.376 44.944 33.304 46.96C30.328 48.88 27.976 51.568 26.248 55.024C24.52 58.384 23.656 62.32 23.656 66.832C23.656 71.44 24.52 75.424 26.248 78.784C27.976 82.144 30.376 84.736 33.448 86.56C36.52 88.384 39.976 89.296 43.816 89.296Z" fill="black"/>
<path d="M142.906 108.736C136.186 108.736 130.234 107.584 125.05 105.28C119.962 102.976 115.69 99.904 112.234 96.064C108.874 92.128 106.282 87.76 104.458 82.96C102.73 78.064 101.866 73.072 101.866 67.984V65.104C101.866 59.824 102.73 54.784 104.458 49.984C106.282 45.088 108.874 40.72 112.234 36.88C115.594 33.04 119.77 30.016 124.762 27.808C129.85 25.504 135.61 24.352 142.042 24.352C150.49 24.352 157.594 26.272 163.354 30.112C169.21 33.856 173.674 38.8 176.746 44.944C179.818 50.992 181.354 57.616 181.354 64.816V72.592H111.514V59.488H167.386L159.898 65.536C159.898 60.832 159.226 56.8 157.882 53.44C156.538 50.08 154.522 47.536 151.834 45.808C149.242 43.984 145.978 43.072 142.042 43.072C138.01 43.072 134.602 43.984 131.818 45.808C129.034 47.632 126.922 50.32 125.482 53.872C124.042 57.328 123.322 61.6 123.322 66.688C123.322 71.392 123.994 75.52 125.338 79.072C126.682 82.528 128.794 85.216 131.674 87.136C134.554 89.056 138.298 90.016 142.906 90.016C147.13 90.016 150.586 89.2 153.274 87.568C155.962 85.936 157.786 83.92 158.746 81.52H179.914C178.762 86.8 176.506 91.504 173.146 95.632C169.786 99.76 165.562 102.976 160.474 105.28C155.386 107.584 149.53 108.736 142.906 108.736Z" fill="black"/>
<path d="M211.182 106L187.566 27.088H211.326L233.502 106H211.182ZM218.382 106V86.848H241.566V106H218.382ZM226.878 106L246.03 27.088H268.206L247.758 106H226.878Z" fill="black"/>
<path d="M316.156 108.736C309.436 108.736 303.484 107.584 298.3 105.28C293.212 102.976 288.94 99.904 285.484 96.064C282.124 92.128 279.532 87.76 277.708 82.96C275.98 78.064 275.116 73.072 275.116 67.984V65.104C275.116 59.824 275.98 54.784 277.708 49.984C279.532 45.088 282.124 40.72 285.484 36.88C288.844 33.04 293.02 30.016 298.012 27.808C303.1 25.504 308.86 24.352 315.292 24.352C323.74 24.352 330.844 26.272 336.604 30.112C342.46 33.856 346.924 38.8 349.996 44.944C353.068 50.992 354.604 57.616 354.604 64.816V72.592H284.764V59.488H340.636L333.148 65.536C333.148 60.832 332.476 56.8 331.132 53.44C329.788 50.08 327.772 47.536 325.084 45.808C322.492 43.984 319.228 43.072 315.292 43.072C311.26 43.072 307.852 43.984 305.068 45.808C302.284 47.632 300.172 50.32 298.732 53.872C297.292 57.328 296.572 61.6 296.572 66.688C296.572 71.392 297.244 75.52 298.588 79.072C299.932 82.528 302.044 85.216 304.924 87.136C307.804 89.056 311.548 90.016 316.156 90.016C320.38 90.016 323.836 89.2 326.524 87.568C329.212 85.936 331.036 83.92 331.996 81.52H353.164C352.012 86.8 349.756 91.504 346.396 95.632C343.036 99.76 338.812 102.976 333.724 105.28C328.636 107.584 322.78 108.736 316.156 108.736Z" fill="black"/>
<path d="M370.879 106V0.880005H394.063V106H370.879ZM361.519 17.872V0.880005H394.063V17.872H361.519Z" fill="black"/>
<path d="M453.741 108.736C446.829 108.736 440.685 107.68 435.309 105.568C429.933 103.36 425.373 100.384 421.629 96.64C417.981 92.896 415.197 88.624 413.277 83.824C411.357 78.928 410.397 73.792 410.397 68.416V65.104C410.397 59.632 411.357 54.448 413.277 49.552C415.293 44.56 418.173 40.192 421.917 36.448C425.757 32.704 430.365 29.776 435.741 27.664C441.117 25.456 447.117 24.352 453.741 24.352C460.557 24.352 466.605 25.456 471.885 27.664C477.261 29.776 481.821 32.704 485.565 36.448C489.309 40.192 492.189 44.56 494.205 49.552C496.221 54.448 497.229 59.632 497.229 65.104V68.416C497.229 73.792 496.269 78.928 494.349 83.824C492.429 88.624 489.597 92.896 485.853 96.64C482.205 100.384 477.693 103.36 472.317 105.568C466.941 107.68 460.749 108.736 453.741 108.736ZM453.741 89.296C458.253 89.296 461.997 88.336 464.973 86.416C467.949 84.496 470.205 81.808 471.741 78.352C473.373 74.896 474.189 71.056 474.189 66.832C474.189 62.32 473.373 58.384 471.741 55.024C470.109 51.568 467.757 48.832 464.685 46.816C461.709 44.8 458.061 43.792 453.741 43.792C449.517 43.792 445.869 44.8 442.797 46.816C439.725 48.832 437.373 51.568 435.741 55.024C434.205 58.384 433.437 62.32 433.437 66.832C433.437 71.056 434.205 74.896 435.741 78.352C437.277 81.808 439.581 84.496 442.653 86.416C445.725 88.336 449.421 89.296 453.741 89.296Z" fill="black"/>
<path d="M513.309 134.8V27.088H531.597V61.216L529.149 61.072C529.533 53.2 531.165 46.576 534.045 41.2C536.925 35.728 540.813 31.648 545.709 28.96C550.605 26.176 556.125 24.784 562.269 24.784C567.741 24.784 572.685 25.792 577.101 27.808C581.613 29.824 585.453 32.656 588.621 36.304C591.885 39.856 594.333 44.08 595.965 48.976C597.693 53.776 598.557 59.056 598.557 64.816V68.128C598.557 73.792 597.741 79.12 596.109 84.112C594.477 89.008 592.077 93.28 588.909 96.928C585.837 100.576 582.045 103.456 577.533 105.568C573.117 107.584 568.029 108.592 562.269 108.592C556.317 108.592 550.941 107.392 546.141 104.992C541.437 102.496 537.645 98.752 534.765 93.76C531.885 88.672 530.301 82.24 530.013 74.464L536.349 83.104V134.8H513.309ZM555.789 89.296C559.725 89.296 563.133 88.336 566.013 86.416C568.989 84.496 571.293 81.808 572.925 78.352C574.557 74.896 575.373 70.912 575.373 66.4C575.373 61.888 574.557 57.952 572.925 54.592C571.293 51.232 569.037 48.64 566.157 46.816C563.277 44.896 559.821 43.936 555.789 43.936C552.333 43.936 549.069 44.752 545.997 46.384C542.925 48.016 540.429 50.368 538.509 53.44C536.685 56.416 535.773 60.064 535.773 64.384V69.712C535.773 73.84 536.733 77.392 538.653 80.368C540.669 83.248 543.213 85.456 546.285 86.992C549.357 88.528 552.525 89.296 555.789 89.296Z" fill="black"/>
</svg>
