<svg width="36" height="36" viewBox="0 0 36 36" fill="none" xmlns="http://www.w3.org/2000/svg">
<path d="M25.9584 36C11.6332 36 0 24.3668 0 10.0416C0 4.9701 3.79762 0.667735 8.82105 0.0187752C10.0949 -0.125438 11.3207 0.571593 11.8255 1.74934L15.4549 10.1858C15.8394 11.0751 15.7433 12.0846 15.2145 12.9018L12.2101 17.4926C13.5561 20.2327 15.8154 22.492 18.5795 23.814L23.0741 20.7855C23.8913 20.2327 24.9008 20.1365 25.8142 20.5451L34.2507 24.1745C35.4284 24.6793 36.1254 25.9051 35.9812 27.179C35.3323 32.2024 31.0299 36 25.9584 36ZM9.15755 2.87901C5.60028 3.33568 2.88427 6.41223 2.88427 10.0416C2.88427 22.7564 13.2436 33.1157 25.9584 33.1157C29.5878 33.1157 32.6643 30.3997 33.121 26.8184L24.6845 23.2131L20.1658 26.2175C19.3246 26.7703 18.243 26.8665 17.3296 26.4338C13.9887 24.8235 11.2486 22.0834 9.61422 18.7665C9.18158 17.8532 9.25369 16.7716 9.80651 15.9303L12.811 11.3636L9.15755 2.87901Z" fill="white"/>
</svg>
