<svg width="37" height="36" viewBox="0 0 37 36" fill="none" xmlns="http://www.w3.org/2000/svg">
<path d="M24.7003 36.0001C23.6977 36.0001 22.7577 35.4361 22.2878 34.4962L15.6141 20.3656L1.51486 13.6919C0.825561 13.3786 0.324254 12.7833 0.104933 12.0314C-0.302379 10.6214 0.512244 9.18018 1.92217 8.77287L32.6585 0.093995C33.1285 -0.0313317 33.6298 -0.0313317 34.0998 0.093995C35.5097 0.501307 36.3244 1.94256 35.917 3.35249L27.2382 34.0889C27.0502 34.8095 26.5175 35.4361 25.8282 35.7494C25.4836 35.9374 25.0763 36.0001 24.7003 36.0001ZM33.3792 2.63186L2.6428 11.3107L16.7734 17.9844C17.3374 18.235 17.776 18.6737 18.0267 19.2376L24.7003 33.3682L33.3792 2.63186Z" fill="white"/>
</svg>
