<svg width="590" height="130" viewBox="0 0 590 130" fill="none" xmlns="http://www.w3.org/2000/svg">
<path d="M36.464 103.448C25.232 103.448 16.448 101.144 10.112 96.536C3.77598 91.928 0.415982 85.448 0.0319824 77.096H20.48C20.864 79.592 22.352 81.848 24.944 83.864C27.632 85.784 31.616 86.744 36.896 86.744C40.928 86.744 44.24 86.072 46.832 84.728C49.52 83.288 50.864 81.272 50.864 78.68C50.864 76.376 49.856 74.552 47.84 73.208C45.824 71.768 42.224 70.76 37.04 70.184L30.848 69.608C21.344 68.648 14.192 66.008 9.39198 61.688C4.68798 57.368 2.33598 51.848 2.33598 45.128C2.33598 39.56 3.72798 34.904 6.51198 31.16C9.29598 27.416 13.136 24.584 18.032 22.664C23.024 20.744 28.688 19.784 35.024 19.784C45.2 19.784 53.408 22.04 59.648 26.552C65.888 30.968 69.152 37.4 69.44 45.848H48.992C48.608 43.256 47.264 41.096 44.96 39.368C42.656 37.544 39.248 36.632 34.736 36.632C31.184 36.632 28.352 37.304 26.24 38.648C24.128 39.992 23.072 41.816 23.072 44.12C23.072 46.328 23.984 48.008 25.808 49.16C27.632 50.312 30.608 51.128 34.736 51.608L40.928 52.184C50.624 53.24 58.16 55.928 63.536 60.248C68.912 64.568 71.6 70.376 71.6 77.672C71.6 82.952 70.16 87.56 67.28 91.496C64.4 95.336 60.32 98.312 55.04 100.424C49.76 102.44 43.568 103.448 36.464 103.448Z" fill="black"/>
<path d="M113.168 103.448C104.048 103.448 97.0396 100.52 92.1436 94.664C87.2476 88.712 84.7996 79.784 84.7996 67.88V22.088H107.84V69.032C107.84 73.256 109.04 76.616 111.44 79.112C113.84 81.608 117.056 82.856 121.088 82.856C125.216 82.856 128.576 81.56 131.168 78.968C133.76 76.376 135.056 72.872 135.056 68.456V22.088H158.096V101H139.808V67.736H141.392C141.392 75.704 140.336 82.376 138.224 87.752C136.208 93.032 133.184 96.968 129.152 99.56C125.12 102.152 120.128 103.448 114.176 103.448H113.168Z" fill="black"/>
<path d="M179.34 129.8V22.088H197.628V56.216L195.18 56.072C195.564 48.2 197.196 41.576 200.076 36.2C202.956 30.728 206.844 26.648 211.74 23.96C216.636 21.176 222.156 19.784 228.3 19.784C233.772 19.784 238.716 20.792 243.132 22.808C247.644 24.824 251.484 27.656 254.652 31.304C257.916 34.856 260.364 39.08 261.996 43.976C263.724 48.776 264.588 54.056 264.588 59.816V63.128C264.588 68.792 263.772 74.12 262.14 79.112C260.508 84.008 258.108 88.28 254.94 91.928C251.868 95.576 248.076 98.456 243.564 100.568C239.148 102.584 234.06 103.592 228.3 103.592C222.348 103.592 216.972 102.392 212.172 99.992C207.468 97.496 203.676 93.752 200.796 88.76C197.916 83.672 196.332 77.24 196.044 69.464L202.38 78.104V129.8H179.34ZM221.82 84.296C225.756 84.296 229.164 83.336 232.044 81.416C235.02 79.496 237.324 76.808 238.956 73.352C240.588 69.896 241.404 65.912 241.404 61.4C241.404 56.888 240.588 52.952 238.956 49.592C237.324 46.232 235.068 43.64 232.188 41.816C229.308 39.896 225.852 38.936 221.82 38.936C218.364 38.936 215.1 39.752 212.028 41.384C208.956 43.016 206.46 45.368 204.54 48.44C202.716 51.416 201.804 55.064 201.804 59.384V64.712C201.804 68.84 202.764 72.392 204.684 75.368C206.7 78.248 209.244 80.456 212.316 81.992C215.388 83.528 218.556 84.296 221.82 84.296Z" fill="black"/>
<path d="M280.59 129.8V22.088H298.878V56.216L296.43 56.072C296.814 48.2 298.446 41.576 301.326 36.2C304.206 30.728 308.094 26.648 312.99 23.96C317.886 21.176 323.406 19.784 329.55 19.784C335.022 19.784 339.966 20.792 344.382 22.808C348.894 24.824 352.734 27.656 355.902 31.304C359.166 34.856 361.614 39.08 363.246 43.976C364.974 48.776 365.838 54.056 365.838 59.816V63.128C365.838 68.792 365.022 74.12 363.39 79.112C361.758 84.008 359.358 88.28 356.19 91.928C353.118 95.576 349.326 98.456 344.814 100.568C340.398 102.584 335.31 103.592 329.55 103.592C323.598 103.592 318.222 102.392 313.422 99.992C308.718 97.496 304.926 93.752 302.046 88.76C299.166 83.672 297.582 77.24 297.294 69.464L303.63 78.104V129.8H280.59ZM323.07 84.296C327.006 84.296 330.414 83.336 333.294 81.416C336.27 79.496 338.574 76.808 340.206 73.352C341.838 69.896 342.654 65.912 342.654 61.4C342.654 56.888 341.838 52.952 340.206 49.592C338.574 46.232 336.318 43.64 333.438 41.816C330.558 39.896 327.102 38.936 323.07 38.936C319.614 38.936 316.35 39.752 313.278 41.384C310.206 43.016 307.71 45.368 305.79 48.44C303.966 51.416 303.054 55.064 303.054 59.384V64.712C303.054 68.84 304.014 72.392 305.934 75.368C307.95 78.248 310.494 80.456 313.566 81.992C316.638 83.528 319.806 84.296 323.07 84.296Z" fill="black"/>
<path d="M420.288 103.736C413.376 103.736 407.232 102.68 401.856 100.568C396.48 98.36 391.92 95.384 388.176 91.64C384.528 87.896 381.744 83.624 379.824 78.824C377.904 73.928 376.944 68.792 376.944 63.416V60.104C376.944 54.632 377.904 49.448 379.824 44.552C381.84 39.56 384.72 35.192 388.464 31.448C392.304 27.704 396.912 24.776 402.288 22.664C407.664 20.456 413.664 19.352 420.288 19.352C427.104 19.352 433.152 20.456 438.432 22.664C443.808 24.776 448.368 27.704 452.112 31.448C455.856 35.192 458.736 39.56 460.752 44.552C462.768 49.448 463.776 54.632 463.776 60.104V63.416C463.776 68.792 462.816 73.928 460.896 78.824C458.976 83.624 456.144 87.896 452.4 91.64C448.752 95.384 444.24 98.36 438.864 100.568C433.488 102.68 427.296 103.736 420.288 103.736ZM420.288 84.296C424.8 84.296 428.544 83.336 431.52 81.416C434.496 79.496 436.752 76.808 438.288 73.352C439.92 69.896 440.736 66.056 440.736 61.832C440.736 57.32 439.92 53.384 438.288 50.024C436.656 46.568 434.304 43.832 431.232 41.816C428.256 39.8 424.608 38.792 420.288 38.792C416.064 38.792 412.416 39.8 409.344 41.816C406.272 43.832 403.92 46.568 402.288 50.024C400.752 53.384 399.984 57.32 399.984 61.832C399.984 66.056 400.752 69.896 402.288 73.352C403.824 76.808 406.128 79.496 409.2 81.416C412.272 83.336 415.968 84.296 420.288 84.296Z" fill="black"/>
<path d="M479.856 101V22.088H498.144V55.928H497.712C497.712 44.792 500.064 36.2 504.768 30.152C509.568 24.104 516.48 21.08 525.504 21.08H528.528V40.952H522.768C516.432 40.952 511.536 42.68 508.08 46.136C504.624 49.496 502.896 54.392 502.896 60.824V101H479.856Z" fill="black"/>
<path d="M578.149 102.008C570.181 102.008 563.749 101.048 558.853 99.128C553.957 97.112 550.357 93.8 548.053 89.192C545.845 84.488 544.741 78.152 544.741 70.184V0.776001H566.197V71.048C566.197 74.792 567.157 77.672 569.077 79.688C571.093 81.608 573.925 82.568 577.573 82.568H589.237V102.008H578.149ZM532.789 38.936V22.088H589.237V38.936H532.789Z" fill="black"/>
</svg>
